# Blender 3.6.2
# www.blender.org
mtllib streetlight.mtl
o Pole
v 0.500000 1.000000 -0.500000
v 0.500000 0.000000 -0.500000
v 0.500000 1.000000 0.500000
v 0.500000 0.000000 0.500000
v -0.500000 1.000000 -0.500000
v -0.500000 0.000000 -0.500000
v -0.500000 1.000000 0.500000
v -0.500000 0.000000 0.500000
v -0.500000 7.500000 0.500000
v -0.500000 8.000000 0.500000
v -0.500000 7.500000 -1.500000
v -0.500000 8.000000 -1.500000
v 0.500000 7.500000 0.500000
v 0.500000 8.000000 0.500000
v 0.500000 7.500000 -1.500000
v 0.500000 8.000000 -1.500000
v -0.250000 1.000000 0.250000
v -0.250000 7.500000 0.250000
v -0.250000 1.000000 -0.250000
v -0.250000 7.500000 -0.250000
v 0.250000 1.000000 0.250000
v 0.250000 7.500000 0.250000
v 0.250000 1.000000 -0.250000
v 0.250000 7.500000 -0.250000
vn -0.0000 1.0000 -0.0000
vn -0.0000 -0.0000 1.0000
vn -1.0000 -0.0000 -0.0000
vn -0.0000 -1.0000 -0.0000
vn 1.0000 -0.0000 -0.0000
vn -0.0000 -0.0000 -1.0000
vt 0.461538 0.461538
vt 0.615385 0.307692
vt 0.615385 0.461538
vt 0.615385 0.615385
vt 0.461538 0.615385
vt 0.615385 0.000000
vt 0.769231 0.153846
vt 0.615385 0.153846
vt 0.769231 0.307692
vt 0.769231 0.461538
vt 0.307692 0.615385
vt 0.461538 0.769231
vt 0.307692 0.769231
vt 0.307692 0.615385
vt 0.384615 0.307692
vt 0.384615 0.615385
vt 0.692308 0.461538
vt 0.692308 0.615385
vt 0.461538 0.307692
vt 0.461539 0.769231
vt 0.538462 0.615385
vt 0.538462 0.769231
vt 0.307692 0.307692
vt 0.461538 0.000000
vt 0.461538 0.307692
vt 0.000000 0.000000
vt 0.076923 1.000000
vt 0.000000 1.000000
vt 0.076923 0.000000
vt 0.153846 1.000000
vt 0.153846 0.000000
vt 0.230769 1.000000
vt 0.230769 0.000000
vt 0.307692 1.000000
vt 0.538462 0.692308
vt 0.615385 0.692308
vt 0.692308 0.615385
vt 0.692308 0.692308
vt 0.769231 0.000000
vt 0.307692 0.000000
s 0
usemtl IronMaterial
f 5/1/1 3/2/1 1/3/1
f 3/1/2 8/4/2 4/5/2
f 7/6/3 6/7/3 8/8/3
f 2/2/4 8/7/4 6/9/4
f 1/2/5 4/10/5 2/3/5
f 5/11/6 2/12/6 6/13/6
f 10/14/3 11/15/3 9/16/3
f 12/4/6 15/17/6 11/18/6
f 16/16/5 13/19/5 15/5/5
f 14/20/2 9/21/2 13/22/2
f 15/23/4 9/24/4 11/25/4
f 12/25/1 14/6/1 16/2/1
f 18/26/3 19/27/3 17/28/3
f 20/29/6 23/30/6 19/27/6
f 24/31/5 21/32/5 23/30/5
f 22/33/2 17/34/2 21/32/2
f 23/35/4 17/4/4 19/36/4
f 20/36/1 22/37/1 24/38/1
f 5/1/1 7/25/1 3/2/1
f 3/1/2 7/3/2 8/4/2
f 7/6/3 5/39/3 6/7/3
f 2/2/4 4/8/4 8/7/4
f 1/2/5 3/9/5 4/10/5
f 5/11/6 1/5/6 2/12/6
f 10/14/3 12/23/3 11/15/3
f 12/4/6 16/3/6 15/17/6
f 16/16/5 14/15/5 13/19/5
f 14/20/2 10/5/2 9/21/2
f 15/23/4 13/40/4 9/24/4
f 12/25/1 10/24/1 14/6/1
f 18/26/3 20/29/3 19/27/3
f 20/29/6 24/31/6 23/30/6
f 24/31/5 22/33/5 21/32/5
f 22/33/2 18/40/2 17/34/2
f 23/35/4 21/21/4 17/4/4
f 20/36/1 18/4/1 22/37/1
