# Blender 3.6.2
# www.blender.org
mtllib streetlight.mtl
o Pole
v 8.125000 0.258139 1.780000
v 8.125000 0.008139 1.780000
v 8.125000 0.258139 2.030000
v 8.125000 0.008139 2.030000
v 7.875000 0.258139 1.780000
v 7.875000 0.008139 1.780000
v 7.875000 0.258139 2.030000
v 7.875000 0.008139 2.030000
v 7.875000 1.883139 2.030000
v 7.875000 2.008139 2.030000
v 7.875000 1.883139 1.530000
v 7.875000 2.008139 1.530000
v 8.125000 1.883139 2.030000
v 8.125000 2.008139 2.030000
v 8.125000 1.883139 1.530000
v 8.125000 2.008139 1.530000
v 7.937500 0.258139 1.967500
v 7.937500 1.883139 1.967500
v 7.937500 0.258139 1.842500
v 7.937500 1.883139 1.842500
v 8.062500 0.258139 1.967500
v 8.062500 1.883139 1.967500
v 8.062500 0.258139 1.842500
v 8.062500 1.883139 1.842500
v 1.775000 0.258139 7.880000
v 1.775000 0.008139 7.880000
v 2.025000 0.258139 7.880000
v 2.025000 0.008139 7.880000
v 1.775000 0.258139 8.130000
v 1.775000 0.008139 8.130000
v 2.025000 0.258139 8.130000
v 2.025000 0.008139 8.130000
v 2.025000 1.883139 8.130000
v 2.025000 2.008139 8.130000
v 1.525000 1.883139 8.130000
v 1.525000 2.008139 8.130000
v 2.025000 1.883139 7.880000
v 2.025000 2.008139 7.880000
v 1.525000 1.883139 7.880000
v 1.525000 2.008139 7.880000
v 1.962500 0.258139 8.067500
v 1.962500 1.883139 8.067500
v 1.837500 0.258139 8.067500
v 1.837500 1.883139 8.067500
v 1.962500 0.258139 7.942500
v 1.962500 1.883139 7.942500
v 1.837500 0.258139 7.942500
v 1.837500 1.883139 7.942500
v 14.225000 0.258139 8.130000
v 14.225000 0.008139 8.130000
v 13.975000 0.258139 8.130000
v 13.975000 0.008139 8.130000
v 14.225000 0.258139 7.880000
v 14.225000 0.008139 7.880000
v 13.975000 0.258139 7.880000
v 13.975000 0.008139 7.880000
v 13.975000 1.883139 7.880000
v 13.975000 2.008139 7.880000
v 14.475000 1.883139 7.880000
v 14.475000 2.008139 7.880000
v 13.975000 1.883139 8.130000
v 13.975000 2.008139 8.130000
v 14.475000 1.883139 8.130000
v 14.475000 2.008139 8.130000
v 14.037500 0.258139 7.942500
v 14.037500 1.883139 7.942500
v 14.162500 0.258139 7.942500
v 14.162500 1.883139 7.942500
v 14.037500 0.258139 8.067500
v 14.037500 1.883139 8.067500
v 14.162500 0.258139 8.067500
v 14.162500 1.883139 8.067500
v 7.875000 0.258139 14.230000
v 7.875000 0.008139 14.230000
v 7.875000 0.258139 13.980000
v 7.875000 0.008139 13.980000
v 8.125000 0.258139 14.230000
v 8.125000 0.008139 14.230000
v 8.125000 0.258139 13.980000
v 8.125000 0.008139 13.980000
v 8.125000 1.883139 13.980000
v 8.125000 2.008139 13.980000
v 8.125000 1.883139 14.480000
v 8.125000 2.008139 14.480000
v 7.875000 1.883139 13.980000
v 7.875000 2.008139 13.980000
v 7.875000 1.883139 14.480000
v 7.875000 2.008139 14.480000
v 8.062500 0.258139 14.042500
v 8.062500 1.883139 14.042500
v 8.062500 0.258139 14.167500
v 8.062500 1.883139 14.167500
v 7.937500 0.258139 14.042500
v 7.937500 1.883139 14.042500
v 7.937500 0.258139 14.167500
v 7.937500 1.883139 14.167500
vn -0.0000 1.0000 -0.0000
vn -0.0000 -0.0000 1.0000
vn -1.0000 -0.0000 -0.0000
vn -0.0000 -1.0000 -0.0000
vn 1.0000 -0.0000 -0.0000
vn -0.0000 -0.0000 -1.0000
vt 0.461538 0.461538
vt 0.615385 0.307692
vt 0.615385 0.461538
vt 0.615385 0.615385
vt 0.461538 0.615385
vt 0.615385 0.000000
vt 0.769231 0.153846
vt 0.615385 0.153846
vt 0.769231 0.307692
vt 0.769231 0.461538
vt 0.307692 0.615385
vt 0.461538 0.769231
vt 0.307692 0.769231
vt 0.307692 0.615385
vt 0.384615 0.307692
vt 0.384615 0.615385
vt 0.692308 0.461538
vt 0.692308 0.615385
vt 0.461538 0.307692
vt 0.461539 0.769231
vt 0.538462 0.615385
vt 0.538462 0.769231
vt 0.307692 0.307692
vt 0.461538 0.000000
vt 0.461538 0.307692
vt 0.000000 0.000000
vt 0.076923 1.000000
vt 0.000000 1.000000
vt 0.076923 0.000000
vt 0.153846 1.000000
vt 0.153846 0.000000
vt 0.230769 1.000000
vt 0.230769 0.000000
vt 0.307692 1.000000
vt 0.538462 0.692308
vt 0.615385 0.692308
vt 0.692308 0.615385
vt 0.692308 0.692308
vt 0.769231 0.000000
vt 0.307692 0.000000
s 0
usemtl Iron
f 5/1/1 3/2/1 1/3/1
f 3/1/2 8/4/2 4/5/2
f 7/6/3 6/7/3 8/8/3
f 2/2/4 8/7/4 6/9/4
f 1/2/5 4/10/5 2/3/5
f 5/11/6 2/12/6 6/13/6
f 10/14/3 11/15/3 9/16/3
f 12/4/6 15/17/6 11/18/6
f 16/16/5 13/19/5 15/5/5
f 14/20/2 9/21/2 13/22/2
f 15/23/4 9/24/4 11/25/4
f 12/25/1 14/6/1 16/2/1
f 18/26/3 19/27/3 17/28/3
f 20/29/6 23/30/6 19/27/6
f 24/31/5 21/32/5 23/30/5
f 22/33/2 17/34/2 21/32/2
f 23/35/4 17/4/4 19/36/4
f 20/36/1 22/37/1 24/38/1
f 29/1/1 27/2/1 25/3/1
f 27/1/5 32/4/5 28/5/5
f 31/6/2 30/7/2 32/8/2
f 26/2/4 32/7/4 30/9/4
f 25/2/6 28/10/6 26/3/6
f 29/11/3 26/12/3 30/13/3
f 34/14/2 35/15/2 33/16/2
f 36/4/3 39/17/3 35/18/3
f 40/16/6 37/19/6 39/5/6
f 38/20/5 33/21/5 37/22/5
f 39/23/4 33/24/4 35/25/4
f 36/25/1 38/6/1 40/2/1
f 42/26/2 43/27/2 41/28/2
f 44/29/3 47/30/3 43/27/3
f 48/31/6 45/32/6 47/30/6
f 46/33/5 41/34/5 45/32/5
f 47/35/4 41/4/4 43/36/4
f 44/36/1 46/37/1 48/38/1
f 53/1/1 51/2/1 49/3/1
f 51/1/3 56/4/3 52/5/3
f 55/6/6 54/7/6 56/8/6
f 50/2/4 56/7/4 54/9/4
f 49/2/2 52/10/2 50/3/2
f 53/11/5 50/12/5 54/13/5
f 58/14/6 59/15/6 57/16/6
f 60/4/5 63/17/5 59/18/5
f 64/16/2 61/19/2 63/5/2
f 62/20/3 57/21/3 61/22/3
f 63/23/4 57/24/4 59/25/4
f 60/25/1 62/6/1 64/2/1
f 66/26/6 67/27/6 65/28/6
f 68/29/5 71/30/5 67/27/5
f 72/31/2 69/32/2 71/30/2
f 70/33/3 65/34/3 69/32/3
f 71/35/4 65/4/4 67/36/4
f 68/36/1 70/37/1 72/38/1
f 73/3/1 79/25/1 75/2/1
f 75/1/6 80/4/6 76/5/6
f 79/6/5 78/7/5 80/8/5
f 74/2/4 80/7/4 78/9/4
f 73/2/3 76/10/3 74/3/3
f 77/11/2 74/12/2 78/13/2
f 82/14/5 83/15/5 81/16/5
f 84/4/2 87/17/2 83/18/2
f 88/16/3 85/19/3 87/5/3
f 86/20/6 81/21/6 85/22/6
f 87/23/4 81/24/4 83/25/4
f 88/2/1 82/24/1 86/6/1
f 90/26/5 91/27/5 89/28/5
f 92/29/2 95/30/2 91/27/2
f 96/31/3 93/32/3 95/30/3
f 94/33/6 89/34/6 93/32/6
f 95/35/4 89/4/4 91/36/4
f 96/38/1 90/4/1 94/37/1
f 5/1/1 7/25/1 3/2/1
f 3/1/2 7/3/2 8/4/2
f 7/6/3 5/39/3 6/7/3
f 2/2/4 4/8/4 8/7/4
f 1/2/5 3/9/5 4/10/5
f 5/11/6 1/5/6 2/12/6
f 10/14/3 12/23/3 11/15/3
f 12/4/6 16/3/6 15/17/6
f 16/16/5 14/15/5 13/19/5
f 14/20/2 10/5/2 9/21/2
f 15/23/4 13/40/4 9/24/4
f 12/25/1 10/24/1 14/6/1
f 18/26/3 20/29/3 19/27/3
f 20/29/6 24/31/6 23/30/6
f 24/31/5 22/33/5 21/32/5
f 22/33/2 18/40/2 17/34/2
f 23/35/4 21/21/4 17/4/4
f 20/36/1 18/4/1 22/37/1
f 29/1/1 31/25/1 27/2/1
f 27/1/5 31/3/5 32/4/5
f 31/6/2 29/39/2 30/7/2
f 26/2/4 28/8/4 32/7/4
f 25/2/6 27/9/6 28/10/6
f 29/11/3 25/5/3 26/12/3
f 34/14/2 36/23/2 35/15/2
f 36/4/3 40/3/3 39/17/3
f 40/16/6 38/15/6 37/19/6
f 38/20/5 34/5/5 33/21/5
f 39/23/4 37/40/4 33/24/4
f 36/25/1 34/24/1 38/6/1
f 42/26/2 44/29/2 43/27/2
f 44/29/3 48/31/3 47/30/3
f 48/31/6 46/33/6 45/32/6
f 46/33/5 42/40/5 41/34/5
f 47/35/4 45/21/4 41/4/4
f 44/36/1 42/4/1 46/37/1
f 53/1/1 55/25/1 51/2/1
f 51/1/3 55/3/3 56/4/3
f 55/6/6 53/39/6 54/7/6
f 50/2/4 52/8/4 56/7/4
f 49/2/2 51/9/2 52/10/2
f 53/11/5 49/5/5 50/12/5
f 58/14/6 60/23/6 59/15/6
f 60/4/5 64/3/5 63/17/5
f 64/16/2 62/15/2 61/19/2
f 62/20/3 58/5/3 57/21/3
f 63/23/4 61/40/4 57/24/4
f 60/25/1 58/24/1 62/6/1
f 66/26/6 68/29/6 67/27/6
f 68/29/5 72/31/5 71/30/5
f 72/31/2 70/33/2 69/32/2
f 70/33/3 66/40/3 65/34/3
f 71/35/4 69/21/4 65/4/4
f 68/36/1 66/4/1 70/37/1
f 73/3/1 77/1/1 79/25/1
f 75/1/6 79/3/6 80/4/6
f 79/6/5 77/39/5 78/7/5
f 74/2/4 76/8/4 80/7/4
f 73/2/3 75/9/3 76/10/3
f 77/11/2 73/5/2 74/12/2
f 82/14/5 84/23/5 83/15/5
f 84/4/2 88/3/2 87/17/2
f 88/16/3 86/15/3 85/19/3
f 86/20/6 82/5/6 81/21/6
f 87/23/4 85/40/4 81/24/4
f 88/2/1 84/25/1 82/24/1
f 90/26/5 92/29/5 91/27/5
f 92/29/2 96/31/2 95/30/2
f 96/31/3 94/33/3 93/32/3
f 94/33/6 90/40/6 89/34/6
f 95/35/4 93/21/4 89/4/4
f 96/38/1 92/36/1 90/4/1
o Bulb
v 8.000000 1.784000 1.675000
v 8.072361 1.839278 1.727572
v 7.972361 1.839278 1.760065
v 7.910557 1.839278 1.675000
v 7.972361 1.839278 1.589935
v 8.072361 1.839278 1.622427
v 7.983755 1.798934 1.724999
v 8.042532 1.798934 1.705901
v 8.026287 1.831426 1.755901
v 8.085065 1.831426 1.675000
v 8.042532 1.798934 1.644099
v 7.947427 1.798935 1.675000
v 7.931181 1.831426 1.725000
v 7.983755 1.798934 1.625000
v 7.931181 1.831426 1.625000
v 8.026287 1.831426 1.594099
v 8.095106 1.884000 1.705901
v 8.095106 1.884000 1.644099
v 8.000000 1.884000 1.775000
v 8.058779 1.884000 1.755902
v 7.904894 1.884000 1.705901
v 7.941221 1.884000 1.755902
v 7.941221 1.884000 1.594098
v 7.904894 1.884000 1.644099
v 8.058779 1.884000 1.594098
v 8.000000 1.884000 1.575000
v 1.669999 1.784000 8.005001
v 1.722572 1.839278 7.932640
v 1.755064 1.839278 8.032640
v 1.669999 1.839278 8.094443
v 1.584934 1.839278 8.032640
v 1.617427 1.839278 7.932640
v 1.719999 1.798934 8.021246
v 1.700900 1.798934 7.962468
v 1.750900 1.831426 7.978714
v 1.669999 1.831426 7.919936
v 1.639098 1.798934 7.962468
v 1.669999 1.798935 8.057573
v 1.719999 1.831426 8.073820
v 1.620000 1.798934 8.021246
v 1.620000 1.831426 8.073820
v 1.589098 1.831426 7.978714
v 1.700901 1.884000 7.909895
v 1.639098 1.884000 7.909895
v 1.770000 1.884000 8.005001
v 1.750901 1.884000 7.946222
v 1.700901 1.884000 8.100106
v 1.750901 1.884000 8.063779
v 1.589097 1.884000 8.063779
v 1.639098 1.884000 8.100106
v 1.589097 1.884000 7.946222
v 1.569999 1.884000 8.005001
v 14.330002 1.784000 8.005001
v 14.277429 1.839278 8.077361
v 14.244937 1.839278 7.977362
v 14.330002 1.839278 7.915558
v 14.415067 1.839278 7.977362
v 14.382574 1.839278 8.077361
v 14.280002 1.798934 7.988755
v 14.299101 1.798934 8.047533
v 14.249101 1.831426 8.031287
v 14.330002 1.831426 8.090065
v 14.360903 1.798934 8.047533
v 14.330002 1.798935 7.952428
v 14.280002 1.831426 7.936182
v 14.380001 1.798934 7.988755
v 14.380001 1.831426 7.936182
v 14.410902 1.831426 8.031287
v 14.299100 1.884000 8.100106
v 14.360903 1.884000 8.100106
v 14.230001 1.884000 8.005001
v 14.249100 1.884000 8.063779
v 14.299100 1.884000 7.909895
v 14.249100 1.884000 7.946222
v 14.410903 1.884000 7.946222
v 14.360903 1.884000 7.909895
v 14.410903 1.884000 8.063779
v 14.430002 1.884000 8.005001
v 8.000000 1.784000 14.335001
v 7.927639 1.839278 14.282429
v 8.027638 1.839278 14.249935
v 8.089442 1.839278 14.335001
v 8.027638 1.839278 14.420066
v 7.927639 1.839278 14.387573
v 8.016246 1.798934 14.285001
v 7.957468 1.798934 14.304100
v 7.973713 1.831426 14.254100
v 7.914935 1.831426 14.335001
v 7.957468 1.798934 14.365902
v 8.052573 1.798934 14.335001
v 8.068819 1.831426 14.285001
v 8.016246 1.798934 14.385000
v 8.068819 1.831426 14.385000
v 7.973713 1.831426 14.415901
v 7.904894 1.884000 14.304100
v 7.904894 1.884000 14.365902
v 8.000000 1.884000 14.235001
v 7.941221 1.884000 14.254099
v 8.095106 1.884000 14.304100
v 8.058779 1.884000 14.254099
v 8.058779 1.884000 14.415902
v 8.095106 1.884000 14.365902
v 7.941221 1.884000 14.415902
v 8.000000 1.884000 14.435001
vn 0.1024 -0.9435 0.3151
vn 0.7002 -0.6617 0.2680
vn -0.2680 -0.9435 0.1947
vn -0.2680 -0.9435 -0.1947
vn 0.1024 -0.9435 -0.3151
vn 0.9050 -0.3304 0.2680
vn 0.0247 -0.3304 0.9435
vn -0.8897 -0.3304 0.3151
vn -0.5746 -0.3304 -0.7488
vn 0.5346 -0.3304 -0.7779
vn 0.8026 -0.1256 0.5831
vn -0.3066 -0.1256 0.9435
vn -0.9921 -0.1256 -0.0000
vn -0.3066 -0.1256 -0.9435
vn 0.8026 -0.1256 -0.5831
vn 0.3035 -0.1876 -0.9342
vn 0.0247 -0.3304 -0.9435
vn -0.7947 -0.1876 -0.5773
vn -0.8897 -0.3304 -0.3151
vn -0.7947 -0.1876 0.5773
vn -0.5746 -0.3304 0.7488
vn 0.3035 -0.1876 0.9342
vn 0.5346 -0.3304 0.7779
vn 0.9822 -0.1876 -0.0000
vn 0.9050 -0.3304 -0.2680
vn 0.4713 -0.6617 -0.5831
vn 0.1876 -0.7947 -0.5773
vn -0.0385 -0.6617 -0.7488
vn -0.4089 -0.6617 -0.6284
vn -0.4911 -0.7947 -0.3568
vn -0.7240 -0.6617 -0.1947
vn -0.7240 -0.6617 0.1947
vn -0.4911 -0.7947 0.3568
vn -0.4089 -0.6617 0.6284
vn 0.7002 -0.6617 -0.2680
vn 0.6071 -0.7947 -0.0000
vn 0.3313 -0.9435 -0.0000
vn -0.0385 -0.6617 0.7488
vn 0.1876 -0.7947 0.5773
vn 0.4713 -0.6617 0.5831
vn 0.3151 -0.9435 -0.1024
vn 0.2680 -0.6617 -0.7002
vn 0.1947 -0.9435 0.2680
vn -0.1947 -0.9435 0.2680
vn -0.3151 -0.9435 -0.1024
vn 0.2680 -0.3304 -0.9050
vn 0.9435 -0.3304 -0.0247
vn 0.3151 -0.3304 0.8897
vn -0.7488 -0.3304 0.5746
vn -0.7779 -0.3304 -0.5346
vn 0.5831 -0.1256 -0.8026
vn 0.9435 -0.1256 0.3066
vn -0.0000 -0.1256 0.9921
vn -0.9435 -0.1256 0.3066
vn -0.5831 -0.1256 -0.8026
vn -0.9342 -0.1876 -0.3035
vn -0.9435 -0.3304 -0.0247
vn -0.5773 -0.1876 0.7947
vn -0.3151 -0.3304 0.8897
vn 0.5774 -0.1876 0.7946
vn 0.7488 -0.3304 0.5746
vn 0.9342 -0.1876 -0.3035
vn 0.7779 -0.3304 -0.5346
vn -0.0000 -0.1876 -0.9822
vn -0.2680 -0.3304 -0.9050
vn -0.5831 -0.6617 -0.4713
vn -0.5774 -0.7947 -0.1876
vn -0.7488 -0.6617 0.0385
vn -0.6284 -0.6617 0.4090
vn -0.3568 -0.7947 0.4911
vn -0.1947 -0.6617 0.7240
vn 0.1947 -0.6617 0.7241
vn 0.3568 -0.7947 0.4911
vn 0.6284 -0.6617 0.4089
vn -0.2680 -0.6617 -0.7002
vn -0.0000 -0.7947 -0.6071
vn -0.0000 -0.9435 -0.3313
vn 0.7488 -0.6617 0.0385
vn 0.5773 -0.7947 -0.1876
vn 0.5831 -0.6617 -0.4713
vn -0.3151 -0.9435 0.1024
vn -0.2680 -0.6617 0.7002
vn -0.1947 -0.9435 -0.2680
vn 0.1947 -0.9435 -0.2680
vn 0.3151 -0.9435 0.1024
vn -0.2680 -0.3304 0.9050
vn -0.9435 -0.3304 0.0247
vn -0.3151 -0.3304 -0.8897
vn 0.7488 -0.3304 -0.5746
vn 0.7779 -0.3304 0.5346
vn -0.5831 -0.1256 0.8026
vn -0.9435 -0.1256 -0.3066
vn -0.0000 -0.1256 -0.9921
vn 0.9435 -0.1256 -0.3066
vn 0.5831 -0.1256 0.8026
vn 0.9342 -0.1876 0.3036
vn 0.9435 -0.3304 0.0247
vn 0.5773 -0.1876 -0.7947
vn 0.3151 -0.3304 -0.8897
vn -0.5774 -0.1876 -0.7946
vn -0.7488 -0.3304 -0.5746
vn -0.9342 -0.1876 0.3035
vn -0.7779 -0.3304 0.5346
vn -0.0000 -0.1876 0.9822
vn 0.2680 -0.3304 0.9050
vn 0.5831 -0.6617 0.4713
vn 0.5774 -0.7947 0.1876
vn 0.7488 -0.6617 -0.0385
vn 0.6284 -0.6617 -0.4089
vn 0.3568 -0.7947 -0.4911
vn 0.1947 -0.6617 -0.7241
vn -0.1947 -0.6617 -0.7240
vn -0.3568 -0.7947 -0.4911
vn -0.6284 -0.6617 -0.4089
vn 0.2680 -0.6617 0.7002
vn -0.0000 -0.7946 0.6071
vn -0.0000 -0.9435 0.3313
vn -0.7488 -0.6617 -0.0385
vn -0.5773 -0.7947 0.1876
vn -0.5831 -0.6617 0.4713
vn -0.1024 -0.9435 -0.3151
vn -0.7002 -0.6617 -0.2680
vn 0.2680 -0.9435 -0.1947
vn 0.2680 -0.9435 0.1947
vn -0.1024 -0.9435 0.3151
vn -0.9050 -0.3304 -0.2680
vn -0.0248 -0.3303 -0.9435
vn 0.8897 -0.3304 -0.3151
vn 0.5746 -0.3304 0.7488
vn -0.5346 -0.3304 0.7779
vn -0.8026 -0.1256 -0.5831
vn 0.3066 -0.1256 -0.9435
vn 0.9921 -0.1256 -0.0000
vn 0.3066 -0.1256 0.9435
vn -0.8026 -0.1256 0.5831
vn -0.3035 -0.1876 0.9342
vn -0.0248 -0.3304 0.9435
vn 0.7947 -0.1876 0.5773
vn 0.8897 -0.3304 0.3151
vn 0.7947 -0.1876 -0.5773
vn 0.5746 -0.3304 -0.7488
vn -0.3035 -0.1876 -0.9342
vn -0.5346 -0.3304 -0.7779
vn -0.9822 -0.1876 -0.0000
vn -0.9050 -0.3304 0.2680
vn -0.4713 -0.6617 0.5831
vn -0.1876 -0.7946 0.5774
vn 0.0385 -0.6617 0.7488
vn 0.4090 -0.6617 0.6284
vn 0.4911 -0.7947 0.3568
vn 0.7240 -0.6617 0.1947
vn 0.7240 -0.6617 -0.1947
vn 0.4911 -0.7947 -0.3568
vn 0.4089 -0.6617 -0.6284
vn -0.7002 -0.6617 0.2680
vn -0.6071 -0.7947 -0.0000
vn -0.3313 -0.9435 -0.0000
vn 0.0385 -0.6617 -0.7487
vn -0.1876 -0.7947 -0.5773
vn -0.4713 -0.6617 -0.5831
vt 0.499974 0.499974
vt 0.621942 0.437827
vt 0.596770 0.596768
vt 0.766923 0.363954
vt 0.622948 0.258624
vt 0.437828 0.621944
vt 0.364771 0.478560
vt 0.478561 0.364771
vt 0.850884 0.148827
vt 0.711828 0.711825
vt 0.767513 0.542346
vt 0.942371 0.725200
vt 0.363956 0.766926
vt 0.542348 0.767513
vt 0.422478 0.990317
vt 0.204058 0.453105
vt 0.258624 0.622949
vt 0.009683 0.577797
vt 0.453107 0.204058
vt 0.308439 0.308437
vt 0.274452 0.057728
vt 0.990317 0.422477
vt 0.725202 0.942371
vt 0.148831 0.850888
vt 0.057727 0.274454
vt 0.577797 0.009683
s 0
usemtl WeatheredPlastic
f 97/41/7 104/42/7 103/43/7
f 98/44/8 104/42/8 106/45/8
f 97/41/9 103/43/9 108/46/9
f 97/41/10 108/46/10 110/47/10
f 97/41/11 110/47/11 107/48/11
f 98/44/12 106/45/12 113/49/12
f 99/50/13 105/51/13 115/52/13
f 100/53/14 109/54/14 117/55/14
f 101/56/15 111/57/15 119/58/15
f 102/59/16 112/60/16 121/61/16
f 98/44/17 113/49/17 116/62/17
f 99/50/18 115/52/18 118/63/18
f 100/53/19 117/55/19 120/64/19
f 101/56/20 119/58/20 122/65/20
f 102/59/21 121/61/21 114/66/21
f 121/61/22 112/60/22 122/65/22
f 112/60/23 101/56/23 122/65/23
f 119/58/24 111/57/24 120/64/24
f 111/57/25 100/53/25 120/64/25
f 117/55/26 109/54/26 118/63/26
f 109/54/27 99/50/27 118/63/27
f 115/52/28 105/51/28 116/62/28
f 105/51/29 98/44/29 116/62/29
f 113/49/30 106/45/30 114/66/30
f 106/45/31 102/59/31 114/66/31
f 107/48/32 112/60/32 102/59/32
f 107/48/33 110/47/33 112/60/33
f 110/47/34 101/56/34 112/60/34
f 110/47/35 111/57/35 101/56/35
f 110/47/36 108/46/36 111/57/36
f 108/46/37 100/53/37 111/57/37
f 108/46/38 109/54/38 100/53/38
f 108/46/39 103/43/39 109/54/39
f 103/43/40 99/50/40 109/54/40
f 106/45/41 107/48/41 102/59/41
f 106/45/42 104/42/42 107/48/42
f 104/42/43 97/41/43 107/48/43
f 103/43/44 105/51/44 99/50/44
f 103/43/45 104/42/45 105/51/45
f 104/42/46 98/44/46 105/51/46
f 123/41/47 130/42/47 129/43/47
f 124/44/48 130/42/48 132/45/48
f 123/41/49 129/43/49 134/46/49
f 123/41/50 134/46/50 136/47/50
f 123/41/51 136/47/51 133/48/51
f 124/44/52 132/45/52 139/49/52
f 125/50/53 131/51/53 141/52/53
f 126/53/54 135/54/54 143/55/54
f 127/56/55 137/57/55 145/58/55
f 128/59/56 138/60/56 147/61/56
f 124/44/57 139/49/57 142/62/57
f 125/50/58 141/52/58 144/63/58
f 126/53/59 143/55/59 146/64/59
f 127/56/60 145/58/60 148/65/60
f 128/59/61 147/61/61 140/66/61
f 147/61/62 138/60/62 148/65/62
f 138/60/63 127/56/63 148/65/63
f 145/58/64 137/57/64 146/64/64
f 137/57/65 126/53/65 146/64/65
f 143/55/66 135/54/66 144/63/66
f 135/54/67 125/50/67 144/63/67
f 141/52/68 131/51/68 142/62/68
f 131/51/69 124/44/69 142/62/69
f 139/49/70 132/45/70 140/66/70
f 132/45/71 128/59/71 140/66/71
f 133/48/72 138/60/72 128/59/72
f 133/48/73 136/47/73 138/60/73
f 136/47/74 127/56/74 138/60/74
f 136/47/75 137/57/75 127/56/75
f 136/47/76 134/46/76 137/57/76
f 134/46/77 126/53/77 137/57/77
f 134/46/78 135/54/78 126/53/78
f 134/46/79 129/43/79 135/54/79
f 129/43/80 125/50/80 135/54/80
f 132/45/81 133/48/81 128/59/81
f 132/45/82 130/42/82 133/48/82
f 130/42/83 123/41/83 133/48/83
f 129/43/84 131/51/84 125/50/84
f 129/43/85 130/42/85 131/51/85
f 130/42/86 124/44/86 131/51/86
f 149/41/87 156/42/87 155/43/87
f 150/44/88 156/42/88 158/45/88
f 149/41/89 155/43/89 160/46/89
f 149/41/90 160/46/90 162/47/90
f 149/41/91 162/47/91 159/48/91
f 150/44/92 158/45/92 165/49/92
f 151/50/93 157/51/93 167/52/93
f 152/53/94 161/54/94 169/55/94
f 153/56/95 163/57/95 171/58/95
f 154/59/96 164/60/96 173/61/96
f 150/44/97 165/49/97 168/62/97
f 151/50/98 167/52/98 170/63/98
f 152/53/99 169/55/99 172/64/99
f 153/56/100 171/58/100 174/65/100
f 154/59/101 173/61/101 166/66/101
f 173/61/102 164/60/102 174/65/102
f 164/60/103 153/56/103 174/65/103
f 171/58/104 163/57/104 172/64/104
f 163/57/105 152/53/105 172/64/105
f 169/55/106 161/54/106 170/63/106
f 161/54/107 151/50/107 170/63/107
f 167/52/108 157/51/108 168/62/108
f 157/51/109 150/44/109 168/62/109
f 165/49/110 158/45/110 166/66/110
f 158/45/111 154/59/111 166/66/111
f 159/48/112 164/60/112 154/59/112
f 159/48/113 162/47/113 164/60/113
f 162/47/114 153/56/114 164/60/114
f 162/47/115 163/57/115 153/56/115
f 162/47/116 160/46/116 163/57/116
f 160/46/117 152/53/117 163/57/117
f 160/46/118 161/54/118 152/53/118
f 160/46/119 155/43/119 161/54/119
f 155/43/120 151/50/120 161/54/120
f 158/45/121 159/48/121 154/59/121
f 158/45/122 156/42/122 159/48/122
f 156/42/123 149/41/123 159/48/123
f 155/43/124 157/51/124 151/50/124
f 155/43/125 156/42/125 157/51/125
f 156/42/126 150/44/126 157/51/126
f 175/41/127 182/42/127 181/43/127
f 176/44/128 182/42/128 184/45/128
f 175/41/129 181/43/129 186/46/129
f 175/41/130 186/46/130 188/47/130
f 175/41/131 188/47/131 185/48/131
f 176/44/132 184/45/132 191/49/132
f 177/50/133 183/51/133 193/52/133
f 178/53/134 187/54/134 195/55/134
f 179/56/135 189/57/135 197/58/135
f 180/59/136 190/60/136 199/61/136
f 176/44/137 191/49/137 194/62/137
f 177/50/138 193/52/138 196/63/138
f 178/53/139 195/55/139 198/64/139
f 179/56/140 197/58/140 200/65/140
f 180/59/141 199/61/141 192/66/141
f 199/61/142 190/60/142 200/65/142
f 190/60/143 179/56/143 200/65/143
f 197/58/144 189/57/144 198/64/144
f 189/57/145 178/53/145 198/64/145
f 195/55/146 187/54/146 196/63/146
f 187/54/147 177/50/147 196/63/147
f 193/52/148 183/51/148 194/62/148
f 183/51/149 176/44/149 194/62/149
f 191/49/150 184/45/150 192/66/150
f 184/45/151 180/59/151 192/66/151
f 185/48/152 190/60/152 180/59/152
f 185/48/153 188/47/153 190/60/153
f 188/47/154 179/56/154 190/60/154
f 188/47/155 189/57/155 179/56/155
f 188/47/156 186/46/156 189/57/156
f 186/46/157 178/53/157 189/57/157
f 186/46/158 187/54/158 178/53/158
f 186/46/159 181/43/159 187/54/159
f 181/43/160 177/50/160 187/54/160
f 184/45/161 185/48/161 180/59/161
f 184/45/162 182/42/162 185/48/162
f 182/42/163 175/41/163 185/48/163
f 181/43/164 183/51/164 177/50/164
f 181/43/165 182/42/165 183/51/165
f 182/42/166 176/44/166 183/51/166
