# Blender 3.6.2
# www.blender.org
mtllib streetlight.mtl
o Pole
v 0.500000 1.000000 -0.500000
v 0.500000 0.000000 -0.500000
v 0.500000 1.000000 0.500000
v 0.500000 0.000000 0.500000
v -0.500000 1.000000 -0.500000
v -0.500000 0.000000 -0.500000
v -0.500000 1.000000 0.500000
v -0.500000 0.000000 0.500000
v -0.500000 7.500000 0.500000
v -0.500000 8.000000 0.500000
v -0.500000 7.500000 -1.500000
v -0.500000 8.000000 -1.500000
v 0.500000 7.500000 0.500000
v 0.500000 8.000000 0.500000
v 0.500000 7.500000 -1.500000
v 0.500000 8.000000 -1.500000
v -0.250000 1.000000 0.250000
v -0.250000 7.500000 0.250000
v -0.250000 1.000000 -0.250000
v -0.250000 7.500000 -0.250000
v 0.250000 1.000000 0.250000
v 0.250000 7.500000 0.250000
v 0.250000 1.000000 -0.250000
v 0.250000 7.500000 -0.250000
vn -0.0000 1.0000 -0.0000
vn -0.0000 -0.0000 1.0000
vn -1.0000 -0.0000 -0.0000
vn -0.0000 -1.0000 -0.0000
vn 1.0000 -0.0000 -0.0000
vn -0.0000 -0.0000 -1.0000
vt 0.461538 0.461538
vt 0.615385 0.307692
vt 0.615385 0.461538
vt 0.615385 0.615385
vt 0.461538 0.615385
vt 0.615385 0.000000
vt 0.769231 0.153846
vt 0.615385 0.153846
vt 0.769231 0.307692
vt 0.769231 0.461538
vt 0.307692 0.615385
vt 0.461538 0.769231
vt 0.307692 0.769231
vt 0.307692 0.615385
vt 0.384615 0.307692
vt 0.384615 0.615385
vt 0.692308 0.461538
vt 0.692308 0.615385
vt 0.461538 0.307692
vt 0.461539 0.769231
vt 0.538462 0.615385
vt 0.538462 0.769231
vt 0.307692 0.307692
vt 0.461538 0.000000
vt 0.461538 0.307692
vt 0.000000 0.000000
vt 0.076923 1.000000
vt 0.000000 1.000000
vt 0.076923 0.000000
vt 0.153846 1.000000
vt 0.153846 0.000000
vt 0.230769 1.000000
vt 0.230769 0.000000
vt 0.307692 1.000000
vt 0.538462 0.692308
vt 0.615385 0.692308
vt 0.692308 0.615385
vt 0.692308 0.692308
vt 0.769231 0.000000
vt 0.307692 0.000000
s 0
usemtl Iron
f 5/1/1 3/2/1 1/3/1
f 3/1/2 8/4/2 4/5/2
f 7/6/3 6/7/3 8/8/3
f 2/2/4 8/7/4 6/9/4
f 1/2/5 4/10/5 2/3/5
f 5/11/6 2/12/6 6/13/6
f 10/14/3 11/15/3 9/16/3
f 12/4/6 15/17/6 11/18/6
f 16/16/5 13/19/5 15/5/5
f 14/20/2 9/21/2 13/22/2
f 15/23/4 9/24/4 11/25/4
f 12/25/1 14/6/1 16/2/1
f 18/26/3 19/27/3 17/28/3
f 20/29/6 23/30/6 19/27/6
f 24/31/5 21/32/5 23/30/5
f 22/33/2 17/34/2 21/32/2
f 23/35/4 17/4/4 19/36/4
f 20/36/1 22/37/1 24/38/1
f 5/1/1 7/25/1 3/2/1
f 3/1/2 7/3/2 8/4/2
f 7/6/3 5/39/3 6/7/3
f 2/2/4 4/8/4 8/7/4
f 1/2/5 3/9/5 4/10/5
f 5/11/6 1/5/6 2/12/6
f 10/14/3 12/23/3 11/15/3
f 12/4/6 16/3/6 15/17/6
f 16/16/5 14/15/5 13/19/5
f 14/20/2 10/5/2 9/21/2
f 15/23/4 13/40/4 9/24/4
f 12/25/1 10/24/1 14/6/1
f 18/26/3 20/29/3 19/27/3
f 20/29/6 24/31/6 23/30/6
f 24/31/5 22/33/5 21/32/5
f 22/33/2 18/40/2 17/34/2
f 23/35/4 21/21/4 17/4/4
f 20/36/1 18/4/1 22/37/1
o Bulb
v 0.000000 7.000000 -1.400000
v 0.000000 7.500000 -1.400000
v 0.346410 7.000000 -1.200000
v 0.346410 7.500000 -1.200000
v 0.346410 7.000000 -0.800000
v 0.346410 7.500000 -0.800000
v 0.000000 7.000000 -0.600000
v 0.000000 7.500000 -0.600000
v -0.346410 7.000000 -0.800000
v -0.346410 7.500000 -0.800000
v -0.346410 7.000000 -1.200000
v -0.346410 7.500000 -1.200000
vn 0.5000 -0.0000 -0.8660
vn 1.0000 -0.0000 -0.0000
vn 0.5000 -0.0000 0.8660
vn -0.5000 -0.0000 0.8660
vn -0.0000 1.0000 -0.0000
vn -1.0000 -0.0000 -0.0000
vn -0.5000 -0.0000 -0.8660
vn -0.0000 -1.0000 -0.0000
vt 0.500000 0.015508
vt 0.015508 0.177006
vt 0.015508 0.015508
vt 0.500000 0.177006
vt 0.015508 0.338503
vt 0.500000 0.338503
vt 0.015508 0.500000
vt 0.500000 0.500000
vt 0.015508 0.661497
vt 0.933816 0.364342
vt 0.531017 0.364342
vt 0.732416 0.015509
vt 0.500000 0.661497
vt 0.015508 0.822994
vt 0.500000 0.822994
vt 0.015508 0.984492
vt 0.933815 0.627915
vt 0.531017 0.627915
vt 0.732416 0.976749
vt 0.933816 0.131787
vt 0.732416 0.480620
vt 0.531017 0.131786
vt 0.500000 0.984492
vt 0.933815 0.860471
vt 0.732416 0.511637
vt 0.531017 0.860471
s 0
usemtl WeatheredPlastic
f 26/41/7 27/42/7 25/43/7
f 28/44/8 29/45/8 27/42/8
f 30/46/9 31/47/9 29/45/9
f 32/48/10 33/49/10 31/47/10
f 26/50/11 34/51/11 30/52/11
f 34/53/12 35/54/12 33/49/12
f 36/55/13 25/56/13 35/54/13
f 27/57/14 31/58/14 35/59/14
f 26/41/7 28/44/7 27/42/7
f 28/44/8 30/46/8 29/45/8
f 30/46/9 32/48/9 31/47/9
f 32/48/10 34/53/10 33/49/10
f 30/52/11 28/60/11 26/50/11
f 26/50/11 36/61/11 34/51/11
f 34/51/11 32/62/11 30/52/11
f 34/53/12 36/55/12 35/54/12
f 36/55/13 26/63/13 25/56/13
f 35/59/14 25/64/14 27/57/14
f 27/57/14 29/65/14 31/58/14
f 31/58/14 33/66/14 35/59/14
